<?xml version="1.0" encoding="UTF-8" standalone="no"?>
<!-- Created with Inkscape (http://www.inkscape.org/) -->

<svg
   xmlns:dc="http://purl.org/dc/elements/1.1/"
   xmlns:cc="http://creativecommons.org/ns#"
   xmlns:rdf="http://www.w3.org/1999/02/22-rdf-syntax-ns#"
   xmlns:svg="http://www.w3.org/2000/svg"
   xmlns="http://www.w3.org/2000/svg"
   xmlns:sodipodi="http://sodipodi.sourceforge.net/DTD/sodipodi-0.dtd"
   xmlns:inkscape="http://www.inkscape.org/namespaces/inkscape"
   width="964.50409"
   height="746.02209"
   id="svg2"
   version="1.1"
   inkscape:version="0.48.4 r9939"
   sodipodi:docname="Nuovo documento 1">
  <defs
     id="defs4" />
  <sodipodi:namedview
     id="base"
     pagecolor="#ffffff"
     bordercolor="#666666"
     borderopacity="1.0"
     inkscape:pageopacity="0.0"
     inkscape:pageshadow="2"
     inkscape:zoom="0.35"
     inkscape:cx="653.7898"
     inkscape:cy="168.87929"
     inkscape:document-units="px"
     inkscape:current-layer="g3007"
     showgrid="false"
     fit-margin-top="0"
     fit-margin-left="0"
     fit-margin-right="0"
     fit-margin-bottom="0"
     inkscape:window-width="1366"
     inkscape:window-height="706"
     inkscape:window-x="-8"
     inkscape:window-y="-8"
     inkscape:window-maximized="1" />
  <metadata
     id="metadata7">
    <rdf:RDF>
      <cc:Work
         rdf:about="">
        <dc:format>image/svg+xml</dc:format>
        <dc:type
           rdf:resource="http://purl.org/dc/dcmitype/StillImage" />
        <dc:title></dc:title>
      </cc:Work>
    </rdf:RDF>
  </metadata>
  <g
     inkscape:label="Livello 1"
     inkscape:groupmode="layer"
     id="layer1"
     transform="translate(139.3949,-130.77971)">
    <g
       id="g3007"
       transform="translate(-1808.5714,-151.42857)">
      <path
         style="fill:#010101"
         d="m 1973.6765,1015.6161 c -167.2,-6.7309 -304.1125,-12.2762 -304.25,-12.3229 -0.1375,-0.047 -0.25,-6.38494 -0.25,-14.08494 l 0,-14 2.5445,0 c 1.3995,0 5.337,-0.6636 8.75,-1.4746 3.413,-0.8111 11.3805,-2.6098 17.7055,-3.9971 22.0461,-4.8357 61.5387,-13.5857 66.8405,-14.8092 l 5.3405,-1.2324 3.4279,-8.7671 3.4279,-8.7672 -4.0422,-18.7262 c -2.2232,-10.2994 -4.4815,-20.6387 -5.0184,-22.9762 -0.5369,-2.3375 -1.4065,-6.1625 -1.9323,-8.5 -0.5259,-2.3375 -1.6343,-7.175 -2.4631,-10.75 -0.8288,-3.575 -3.7831,-17.075 -6.5652,-29.99998 -2.782,-12.925 -5.4672,-25.3 -5.9669,-27.5 -2.0434,-8.99502 -3.0344,-13.31558 -4.4728,-19.5 -10.4158,-44.78381 -11.5304,-58.60176 -6.4697,-80.20453 l 2.0391,-8.70452 -3.0182,-8.79548 c -7.1909,-20.95491 -10.2936,-40.15789 -10.3078,-63.79547 -0.014,-22.64848 1.8666,-37.9418 7.304,-59.40995 1.0322,-4.07548 1.8767,-8.29287 1.8767,-9.37197 0,-1.84173 -0.1379,-1.86399 -2.25,-0.36324 -9.5965,6.81899 -20.4558,8.02501 -29.75,3.30401 -7.1244,-3.61887 -12.5674,-8.95917 -14.6263,-14.3504 -2.4285,-6.35889 -1.4703,-16.38105 2.3386,-24.45939 4.0861,-8.6663 14.6126,-22.28707 21.2831,-27.53908 14.6328,-11.52117 31.3125,-10.80442 39.8174,1.71101 1.9707,2.89988 2.2978,4.42816 1.9654,9.18071 -0.4641,6.63518 -0.2267,6.42147 6.0258,-5.42344 5.9194,-11.21405 19.6148,-31.75312 28.8576,-43.27825 42.8158,-53.38777 95.2256,-88.40402 154.9461,-103.52319 34.7054,-8.7862 76.1574,-9.32522 108.1493,-1.4063 5.6413,1.39639 10.6842,2.27485 11.2064,1.95214 0.9027,-0.5579 6.6283,-8.58617 17.1327,-24.02266 2.6199,-3.85 7.7346,-11.275 11.366,-16.5 3.6315,-5.225 10.5256,-15.30281 15.3203,-22.39514 10.05,-14.86606 13.2563,-18.60486 15.955,-18.60486 1.0642,0 5.6294,2.5875 10.1448,5.75 4.5153,3.1625 11.834,8.225 16.2636,11.25 4.4296,3.025 11.4964,7.87843 15.704,10.78541 4.2076,2.90697 24.7502,17.0273 45.6502,31.37851 20.9,14.35121 42.275,29.04039 47.5,32.64262 14.8076,10.20869 24.967,17.14825 31.5,21.51681 12.7576,8.53081 17.5,12.67372 17.5,15.28777 0,1.42817 -2.6442,6.30991 -6.1865,11.42167 -3.4026,4.91008 -5.9588,9.15522 -5.6804,9.43364 0.2784,0.27842 4.0749,-0.18234 8.4366,-1.02391 9.6646,-1.86475 32.9136,-2.1052 43.9725,-0.45478 10.4133,1.55406 24.22,5.15872 32.9578,8.60463 5.8027,2.2884 8.1118,2.68763 13.5,2.3341 37.654,-2.47051 65.911,4.77465 81.7499,20.96085 21.1948,21.65946 39.218,69.63022 39.2442,104.45243 l 0.01,7.83975 9.25,9.23036 c 10.3067,10.2848 19.9882,16.60242 29.25,19.08702 3.3,0.88526 21.975,3.29308 41.5,5.35071 l 35.5,3.74113 -0.2645,4.45564 c -1.3512,22.76004 -4.3505,64.9024 -4.742,66.62857 -0.851,3.75161 -5.4586,8.23741 -14.3763,13.99614 -10.2068,6.59112 -15.1173,11.01509 -15.1173,13.61937 0,1.04285 0.9,3.04027 2,4.43869 1.1,1.39842 2,3.17289 2,3.94327 0,1.78529 -6.9292,4.75829 -17.2052,7.38199 -12.0635,3.0801 -15.4515,4.85737 -43.7948,22.9738 -16.2644,10.39588 -24.8282,15.38078 -33.2,19.32532 -33.783,15.91764 -74.45,24.6574 -140.3,30.15194 -26.5728,2.21725 -34.562,3.15861 -35.5979,4.19444 -0.4936,0.4936 -2.2166,8.75101 -3.829,18.34979 -2.9521,17.5742 -6.8231,40.3086 -13.6136,79.9523 -2.0255,11.825 -4.2573,24.875 -4.9595,29 -1.2464,7.3216 -1.214,7.6308 1.3616,13 l 2.6384,5.5 13,0.6516 c 7.15,0.3584 19.4112,0.8084 27.2471,1 l 14.2471,0.3484 -0.096,6 c -0.053,3.3 -0.389,8.3421 -0.7471,11.2046 l -0.6511,5.2045 -13,9.6347 c -7.15,5.299 -19.75,14.6211 -28,20.71574 -8.25,6.0946 -19.0843,14.1595 -24.0763,17.9219 l -9.0762,6.8407 -7.9238,-0.1881 c -4.358,-0.1035 -144.7237,-5.6953 -311.9237,-12.4262 z m 269.4659,-27.98154 c -5.7217,-5.8346 -8.7302,-7.9953 -9.7344,-6.9911 -0.8429,0.8429 11.9548,12.5408 13.7344,12.554 0.8062,0.01 -0.9938,-2.4974 -4,-5.5629 z m -410.2154,-40.6763 c -0.2289,-0.6875 -1.2646,-1.4144 -2.3015,-1.6153 -1.6311,-0.3161 -1.7046,-0.1476 -0.5447,1.25 1.5862,1.9112 3.4401,2.1492 2.8462,0.3653 z m 361.6784,-4.0097 c 0.039,-0.4179 -13.6275,-15.4143 -30.3703,-33.3254 -29.1127,-31.1443 -30.5748,-32.5423 -33.5,-32.0308 -9.2114,1.6107 -46.7276,2.8296 -70.0586,2.2763 -36.251,-0.8598 -60.6507,-3.5291 -93.2982,-10.2067 -9.1575,-1.873 -16.9269,-3.0788 -17.2653,-2.6796 -4.5935,5.4193 -21.6232,26.2421 -25.4365,31.1023 -2.75,3.505 -7.9338,9.8041 -11.5196,13.9981 -9.676,11.3174 -13.9804,16.8439 -13.9804,17.95 0,1.5492 7.0601,2.0655 43.5,3.1812 18.7,0.5725 40.75,1.4283 49,1.9018 8.25,0.4736 16.35,0.8567 18,0.8514 1.65,-0.01 15.825,0.5283 31.5,1.1859 15.675,0.6576 32.55,1.3199 37.5,1.4719 4.95,0.1519 19.575,0.8217 32.5,1.4883 12.925,0.6666 30.025,1.4099 38,1.6518 7.975,0.2419 20.8,0.8166 28.5,1.2772 15.9399,0.9536 16.8313,0.9486 16.9289,-0.094 z m -309.7146,-9.4546 c -0.9167,-0.9166 -2.0142,-1.3191 -2.4389,-0.8944 -0.4247,0.4247 0.094,1.4058 1.1532,2.1802 2.497,1.8258 3.4471,0.8757 1.2857,-1.2858 z m 537.0505,-154.78807 c 21.0749,-1.39452 49.3187,-9.55016 71.4852,-20.64195 12.5969,-6.30327 11.2913,-6.87732 -17.25,-7.58484 -26.0723,-0.64631 -30.032,0.11087 -43.6478,8.34617 -14.8758,8.99746 -26.0871,12.75063 -47.2355,15.8129 -16.0509,2.32414 -15.4941,3.31511 2.5003,4.44993 12.5691,0.79267 17.1708,0.74117 34.1478,-0.38221 z m -320.2648,-17.61562 c 9.6714,-8.36104 25.0633,-18.47252 33.542,-22.0349 10.6361,-4.46881 18.6591,-5.809 34.958,-5.8395 13.1119,-0.0245 14.9859,-0.25337 19.5752,-2.39038 5.8042,-2.70267 14.0211,-10.38307 20.4526,-19.11721 5.4134,-7.3515 19.9722,-31.44635 19.9722,-33.05402 0,-2.4984 -33.2566,-4.28762 -48.5,-2.60934 -48.144,5.30061 -75.4364,29.62565 -87.0574,77.59225 -3.9087,16.13345 -3.4922,16.57337 7.0574,7.4531 z m -323.1741,-32.39482 c 15.0457,-12.55888 30.4391,-21.59855 42.8269,-25.14983 3.5166,-1.0081 11.3384,-1.68267 22.8472,-1.97039 20.8767,-0.52192 23.0048,-1.24916 33.0746,-11.30288 8.7782,-8.76414 30.8034,-42.57942 28.9126,-44.38942 -0.268,-0.25647 -7.6872,-0.99121 -16.4872,-1.63275 -48.8413,-3.56065 -82.8671,9.04069 -102.4934,37.9581 -7.8844,11.61686 -14.1774,27.23052 -17.4564,43.31101 -1.4902,7.30795 -1.4237,9.68899 0.2705,9.68899 0.3865,0 4.2138,-2.93077 8.5052,-6.51283 z m 683.5492,-99.37117 c 18.3705,-5.71755 29.1147,-20.03803 27.8888,-37.17184 -0.9301,-12.99881 -11.4863,-25.68479 -25.2083,-30.29432 -5.9078,-1.98453 -7.2825,-1.17554 -5.9424,3.49696 0.7853,2.73816 1.6126,3.40853 5.407,4.3813 11.7271,3.00647 18.9798,11.01665 18.9798,20.96209 0,10.65008 -9.2193,19.82919 -21.3037,21.21091 -3.9875,0.45592 -6.0693,1.37401 -8.9492,3.94652 -3.0193,2.69709 -4.583,3.34949 -8,3.3376 -5.549,-0.0193 -15.1199,-2.28426 -26.019,-6.1574 -4.8246,-1.71446 -9.0203,-2.86892 -9.3238,-2.56544 -1.0749,1.07487 2.6018,6.58733 6.8195,10.22455 8.7138,7.51454 16.8204,10.29074 30.4371,10.42365 6.3789,0.0623 10.9992,-0.48272 15.2142,-1.79458 z M 1722.945,555.66056 c 2.0373,-0.85125 4.7778,-2.53875 6.09,-3.75 3.079,-2.84223 17.1415,-21.32039 17.1415,-22.52406 0,-0.50506 -2.025,-1.48525 -4.5,-2.17821 -5.7263,-1.60328 -6.1257,-4.23513 -0.8458,-5.57363 2.0174,-0.51145 4.5318,-2.10913 5.6136,-3.56705 1.7126,-2.308 1.8101,-3.09327 0.7738,-6.23317 -1.664,-5.04225 -6.1491,-7.93398 -13.0836,-8.43557 -7.3681,-0.53296 -13.1334,1.9706 -20.4304,8.87173 -6.9934,6.61409 -11.0343,12.94624 -12.9464,20.28712 -2.3049,8.84919 -1.232,14.05237 3.9702,19.25457 5.5034,5.50344 11.3166,6.73146 18.2171,3.84827 z m 71.7198,-6.11894 c 37.9193,-8.33175 62.8129,-18.6345 75.3732,-31.19485 6.9983,-6.99828 10.9842,-14.1986 18.6365,-33.66609 10.6132,-27.00008 17.8146,-38.01746 36.369,-55.64087 10.8802,-10.33434 26.8841,-22.1855 43.633,-32.31103 15.4541,-9.34273 15.4222,-9.41449 -3.1025,-6.98611 -50.3875,6.60522 -94.9335,29.34163 -131.4483,67.09169 -16.5555,17.1155 -30.003,35.20515 -44.409,59.73936 -6.6033,11.24584 -17.5402,33.8184 -17.5402,36.20106 0,1.8206 -1.4819,2.03365 22.4883,-3.23316 z m 638.7291,-19.93822 c -0.5359,-5.49046 -5.4501,-23.91311 -8.2411,-30.89511 -5.8734,-14.69264 -16.9941,-31.10955 -24.5528,-36.2458 -2.0067,-1.36355 -4.4934,-3.3241 -5.5261,-4.35677 -1.0326,-1.03268 -6.4945,-4.11732 -12.1375,-6.85477 -15.3753,-7.45868 -33.1863,-11.04267 -54.8777,-11.04267 -12.3078,0 -30.981,1.71962 -32.243,2.96927 -0.479,0.47433 1.694,5.21623 4.8995,10.69156 14.0816,24.05307 24.7876,36.90544 34.8379,41.8226 5.4454,2.66418 6.2625,2.77382 19.6848,2.64151 15.9971,-0.15769 23.9763,1.16767 35.2267,5.85122 9.5226,3.96427 22.9095,12.76346 33.2119,21.83017 4.4,3.87224 8.45,6.91521 9,6.76217 0.55,-0.15305 0.8729,-1.58107 0.7174,-3.17338 z m -165.4716,-93.0145 c 5.2864,-3.50889 5.416,-3.70606 4.76,-7.24385 -1.1756,-6.34115 -7.1036,-12.50732 -14.405,-14.98382 -7.0225,-2.38191 -14.4929,-0.69416 -19.6197,4.4326 -4.0237,4.02372 -4.4237,6.66266 -1.2311,8.12163 1.2375,0.56551 6.075,4.04537 10.75,7.73302 9.8301,7.754 10.8381,7.85305 19.7458,1.94042 z m 108.2542,3.72637 c 0,-1.1557 -2.5201,-2.10699 -5.5818,-2.10699 -1.4828,0 -2.4182,0.5802 -2.4182,1.5 0,1.08333 1.1111,1.5 4,1.5 2.2,0 4,-0.40186 4,-0.89301 z"
         id="path3009-1"
         inkscape:connector-curvature="0" />
    </g>
  </g>
</svg>
