<?xml version="1.0" encoding="UTF-8" standalone="no"?>
<!-- Created with Inkscape (http://www.inkscape.org/) -->

<svg
   xmlns:dc="http://purl.org/dc/elements/1.1/"
   xmlns:cc="http://creativecommons.org/ns#"
   xmlns:rdf="http://www.w3.org/1999/02/22-rdf-syntax-ns#"
   xmlns:svg="http://www.w3.org/2000/svg"
   xmlns="http://www.w3.org/2000/svg"
   xmlns:xlink="http://www.w3.org/1999/xlink"
   xmlns:sodipodi="http://sodipodi.sourceforge.net/DTD/sodipodi-0.dtd"
   xmlns:inkscape="http://www.inkscape.org/namespaces/inkscape"
   width="255.06476mm"
   height="197.21036mm"
   viewBox="0 0 255.06476 197.21036"
   version="1.1"
   id="svg8"
   inkscape:version="0.92.4 (5da689c313, 2019-01-14)"
   sodipodi:docname="gazie_pig.svg"
   inkscape:export-filename="D:\Desktop\pig.png"
   inkscape:export-xdpi="200.02094"
   inkscape:export-ydpi="200.02094">
  <title
     id="title984">Logo GAzie vettoriale</title>
  <defs
     id="defs2">
    <linearGradient
       inkscape:collect="always"
       id="linearGradient965">
      <stop
         style="stop-color:#ffffff;stop-opacity:1;"
         offset="0"
         id="stop961" />
      <stop
         style="stop-color:#ffffff;stop-opacity:0;"
         offset="1"
         id="stop963" />
    </linearGradient>
    <linearGradient
       inkscape:collect="always"
       xlink:href="#linearGradient965"
       id="linearGradient967"
       x1="16.594538"
       y1="-136.84474"
       x2="132.99675"
       y2="129.62975"
       gradientUnits="userSpaceOnUse"
       gradientTransform="translate(-3.1008971e-6)" />
  </defs>
  <sodipodi:namedview
     id="base"
     pagecolor="#ffffff"
     bordercolor="#666666"
     borderopacity="1.0"
     inkscape:pageopacity="0.0"
     inkscape:pageshadow="2"
     inkscape:zoom="1.1001366"
     inkscape:cx="482.01215"
     inkscape:cy="382.46008"
     inkscape:document-units="mm"
     inkscape:current-layer="layer15"
     showgrid="false"
     objecttolerance="1"
     guidetolerance="1"
     gridtolerance="1"
     inkscape:window-width="1920"
     inkscape:window-height="1017"
     inkscape:window-x="-8"
     inkscape:window-y="-8"
     inkscape:window-maximized="1"
     fit-margin-top="0"
     fit-margin-left="0"
     fit-margin-right="0"
     fit-margin-bottom="0" />
  <metadata
     id="metadata5">
    <rdf:RDF>
      <cc:Work
         rdf:about="">
        <dc:format>image/svg+xml</dc:format>
        <dc:type
           rdf:resource="http://purl.org/dc/dcmitype/StillImage" />
        <dc:title>Logo GAzie vettoriale</dc:title>
        <cc:license
           rdf:resource="ANTONIO DE VINCENTIIS 2021" />
        <dc:date>31/03/2021</dc:date>
        <dc:creator>
          <cc:Agent>
            <dc:title>Antonio de Vincentiis</dc:title>
          </cc:Agent>
        </dc:creator>
        <dc:rights>
          <cc:Agent>
            <dc:title></dc:title>
          </cc:Agent>
        </dc:rights>
        <dc:description>Realizzato con inkscape nei limiti della mia (limitata) padronanza con lo strumento. </dc:description>
      </cc:Work>
    </rdf:RDF>
  </metadata>
  <g
     inkscape:groupmode="layer"
     id="layer10"
     inkscape:label="Livello 10"
     style="display:inline"
     transform="translate(294.59372,-46.481943)"
     sodipodi:insensitive="true">
    <path
       style="fill:#ef9dad;fill-opacity:1;stroke:#000000;stroke-width:0.26458332px;stroke-linecap:butt;stroke-linejoin:miter;stroke-opacity:1"
       d="m -103.42061,88.852918 c 0,0 2.95768,-0.557787 4.735117,-0.548177 3.793845,-0.143437 6.545179,0.249442 10.170371,1.268688 3.710231,1.237352 6.889465,2.104581 10.225615,6.677548 1.757995,2.40974 2.727492,4.657913 3.848524,6.890583 0.987134,1.966 1.852518,4.53517 2.409958,6.40944 1.5149,4.71932 2.08135,9.67342 1.865547,13.90147 -1.523696,-1.87448 -3.550287,-4.5189 -5.115055,-6.25871 -2.005649,-2.23002 -3.769094,-3.94574 -5.716807,-6.01777 -4.638695,-4.99604 -8.037811,-7.53136 -10.651292,-8.78624 -1.656715,-3.17243 -2.08909,-4.301968 -4.455322,-7.516736 -2.528115,-3.434704 -7.316656,-6.020095 -7.316656,-6.020096 z"
       id="path910"
       inkscape:connector-curvature="0"
       sodipodi:nodetypes="cccssccsccsc" />
  </g>
  <g
     inkscape:groupmode="layer"
     id="layer9"
     inkscape:label="Livello 9"
     style="display:inline"
     sodipodi:insensitive="true"
     transform="translate(294.59372,-46.481943)">
    <path
       style="fill:#00923f;fill-opacity:1;stroke:#1f7650;stroke-width:0.26458332px;stroke-linecap:butt;stroke-linejoin:miter;stroke-opacity:1"
       d="m -109.82071,223.16066 -19.01057,13.21765 -165.62856,-6.44564 54.25763,-12.07539 z"
       id="path905"
       inkscape:connector-curvature="0" />
    <path
       style="fill:#1f7650;fill-opacity:1;stroke:#1f7650;stroke-width:0.26458332px;stroke-linecap:butt;stroke-linejoin:miter;stroke-opacity:1"
       d="m -294.45984,229.93267 0.0816,7.09836 165.05742,6.52724 19.74488,-14.60469 0.0816,-5.9561 -19.5817,13.46242 z"
       id="path907"
       inkscape:connector-curvature="0" />
  </g>
  <g
     inkscape:groupmode="layer"
     id="layer8"
     inkscape:label="Livello 8"
     style="display:inline"
     transform="translate(294.59372,-46.481943)"
     sodipodi:insensitive="true">
    <path
       style="fill:#f39db4;fill-opacity:1;stroke:#000000;stroke-width:0.26458332px;stroke-linecap:butt;stroke-linejoin:miter;stroke-opacity:1"
       d="m -272.23758,165.1063 c 2.40035,3.9895 4.81037,6.89823 7.81316,10.05251 5.43365,5.70775 14.76628,12.0217 23.85995,17.39634 2.81579,1.66421 12.06639,5.79026 17.91114,7.44021 4.69715,1.32599 8.91545,2.15944 14.00352,2.86053 10.79162,1.48699 20.56678,1.71313 31.00856,1.23148 9.20085,-0.42441 19.25977,-1.74194 26.23699,-4.09201 10.73318,-3.61516 15.72248,-9.75013 21.97476,-15.3493 8.12903,-0.56573 15.54191,-1.41784 23.70228,-2.16511 4.29145,-0.38979 7.589726,-0.90775 11.754565,-1.28863 8.887363,-1.84796 16.520782,-3.3546 23.614662,-7.27834 2.474572,-1.19878 7.559034,-4.53665 10.473078,-6.41383 1.997233,-1.44126 3.864888,-2.48594 5.733512,-3.17564 1.57528,-0.58142 5.293786,-1.37668 7.025541,-2.36576 -2.045468,-1.68069 -1.685374,-2.55057 -1.685374,-2.55057 0,0 -7.459115,-0.15838 -10.647408,-0.60154 2.890018,-0.15498 11.070415,0.13266 11.070415,0.13266 0,0 0.864376,-1.15188 2.404558,-2.01909 2.252734,-1.82939 4.186071,-2.08825 5.147451,-4.64353 0.327377,-2.50317 1.168453,-18.77216 1.168453,-18.77216 0,0 -8.245285,-0.60329 -10.940375,-1.04399 -3.633979,-0.49551 -7.107214,0.003 -11.494082,-2.02929 -3.408073,-1.57911 -7.415723,-6.03901 -9.626999,-8.79308 -3.774674,-4.56636 -5.043673,-6.03686 -10.166817,-11.35324 -2.096181,-2.17525 -4.507689,-4.95808 -8.156064,-6.95254 -7.579636,-5.145565 -13.601086,-7.043995 -22.117026,-9.007087 -6.20578,-1.334289 -13.40549,-2.528553 -18.29368,-1.925649 -3.84733,1.239182 -5.39222,-0.151766 -6.61942,-2.28671 -2.01038,-1.496603 -3.86102,-2.502481 -6.01767,-4.332713 -5.35669,-3.958286 -12.19008,-6.965953 -17.69191,-9.026486 -12.35146,-4.368158 -23.14703,-8.112707 -34.61311,-9.917559 -22.11532,-2.513165 -43.21025,5.243949 -57.8181,19.064398 -11.95577,12.225902 -19.4964,22.863556 -23.16559,37.544846 -0.73733,2.95022 -2.35343,11.49037 -2.30672,14.81965 0.1209,8.61639 0.56026,11.89401 2.6271,18.68641 1.11166,3.65333 2.53975,6.00927 3.83065,8.15482 z"
       id="path896"
       inkscape:connector-curvature="0"
       sodipodi:nodetypes="ssssssscccccsccccccccscsccccccccssss" />
    <text
       xml:space="preserve"
       style="font-style:normal;font-variant:normal;font-weight:bold;font-stretch:normal;font-size:9.48231316px;line-height:1.25;font-family:Tahoma;-inkscape-font-specification:'Tahoma Bold';font-variant-ligatures:normal;font-variant-caps:normal;font-variant-numeric:normal;font-feature-settings:normal;text-align:start;letter-spacing:0px;word-spacing:0px;writing-mode:lr-tb;text-anchor:start;fill:#000000;fill-opacity:1;stroke:none;stroke-width:0.26458332"
       x="-168.57149"
       y="61.633476"
       id="text971"><tspan
         sodipodi:role="line"
         id="tspan969"
         x="-168.57149"
         y="70.284477"
         style="stroke-width:0.26458332" /></text>
  </g>
  <g
     inkscape:groupmode="layer"
     id="layer3"
     inkscape:label="Livello 3"
     style="display:inline;opacity:1"
     sodipodi:insensitive="true"
     transform="translate(294.59372,-46.481943)">
    <path
       style="fill:#f2acbd;fill-opacity:1;stroke:#000000;stroke-width:0.26458332px;stroke-linecap:butt;stroke-linejoin:miter;stroke-opacity:1"
       d="m -271.56217,110.28505 c 0,0 -2.087,1.13166 -3.51913,3.09615 -0.7658,1.05048 -1.54997,2.1774 -2.39877,3.14023 -1.28348,1.4559 -3.33866,3.00468 -5.61353,2.57869 -0.94828,-0.17757 -1.87705,-0.83913 -2.62763,-1.72989 -1.22306,-1.45146 -1.09559,-3.60867 -0.64206,-5.34702 0.89812,-2.06359 2.17801,-3.71315 3.63663,-5.18582 1.25755,-0.90031 2.90425,-2.09537 4.49629,-2.16682 1.56667,-0.0703 3.37702,0.17941 4.32003,1.63157 0.61223,0.94278 0.79671,2.21466 -0.28249,2.95403 -0.74039,0.50725 -2.48325,0.86738 -2.48325,0.86738 -0.93943,0.61155 2.58821,1.07841 3.47005,0.3791 0.83429,-0.66161 1.50514,-1.38093 1.859,-2.43495 0.34395,-1.02451 -0.0758,-1.84167 -1.04251,-3.07221 -1.25565,-1.5983 -3.74487,-2.26096 -5.82981,-1.82286 -1.58075,0.52586 -2.32834,0.88733 -3.65292,1.72342 -1.25066,0.78943 -1.67317,1.34815 -3.01935,2.85567 -1.59143,1.9425 -2.18963,2.89114 -3.18504,5.24492 -0.43006,1.01691 -0.88252,2.87206 -0.66997,4.39824 0.24347,1.74812 0.92553,3.1488 2.38356,4.1681 0.9007,0.62967 2.36467,1.6687 3.47923,1.80816 2.54075,0.24315 4.74667,-0.51202 7.12502,-2.48633 0.85581,-2.27278 1.24128,-3.58839 2.12628,-5.61357 0.76177,-1.74316 1.12838,-2.8978 2.07037,-4.98619 z"
       id="path836"
       inkscape:connector-curvature="0"
       sodipodi:nodetypes="cssssccssssssscscsssccsc" />
  </g>
  <g
     inkscape:groupmode="layer"
     id="layer11"
     inkscape:label="Livello 11"
     style="display:inline"
     sodipodi:insensitive="true"
     transform="translate(294.59372,-46.481943)">
    <ellipse
       style="opacity:1;fill:#ffffff;fill-opacity:1;stroke:#000000;stroke-width:0.26499999;stroke-miterlimit:4;stroke-dasharray:none;stroke-opacity:1"
       id="path914"
       ry="9.8718929"
       rx="11.425013"
       cy="129.22035"
       cx="-88.655548" />
    <ellipse
       style="display:inline;opacity:1;fill:#020000;fill-opacity:1;stroke:#000000;stroke-width:0.26500002;stroke-miterlimit:4;stroke-dasharray:none;stroke-opacity:1"
       id="path916"
       cx="-85.145081"
       cy="128.02893"
       rx="5.8720741"
       ry="5.4891133" />
  </g>
  <g
     inkscape:groupmode="layer"
     id="layer13"
     inkscape:label="Livello 13"
     style="display:inline"
     sodipodi:insensitive="true"
     transform="translate(294.59372,-46.481943)">
    <path
       style="display:inline;fill:#e77817;fill-opacity:1;stroke:#000000;stroke-width:0.99999994px;stroke-linecap:butt;stroke-linejoin:miter;stroke-opacity:1"
       d="m -657.29883,176.37305 -63.68359,91.43164 185.5918,126.45508 62.31835,-91.42969 z m 127.59375,127.36523 a 21.606705,22.061585 0 0 1 21.60547,22.0625 21.606705,22.061585 0 0 1 -21.60547,22.0625 21.606705,22.061585 0 0 1 -21.60742,-22.0625 21.606705,22.061585 0 0 1 21.60742,-22.0625 z"
       id="path857"
       inkscape:connector-curvature="0"
       transform="scale(0.26458333)" />
  </g>
  <g
     inkscape:groupmode="layer"
     id="layer5"
     inkscape:label="Livello 5"
     style="display:inline"
     sodipodi:insensitive="true"
     transform="translate(294.59372,-46.481943)">
    <path
       style="fill:#d4241c;fill-opacity:1;stroke:#000000;stroke-width:0.26458332px;stroke-linecap:butt;stroke-linejoin:miter;stroke-opacity:1"
       d="m -186.66773,100.34295 c -1.71255,4.57171 -4.9815,9.47647 -7.00586,13.90006 -1.04951,2.2934 -2.65134,2.78018 0.52732,2.70868 6.21333,-0.13976 10.52082,-0.55938 15.50825,-2.82926 4.08128,-1.85747 9.54532,-4.73126 13.28908,-7.26747 3.61287,-2.44754 6.10181,-3.57254 10.56361,-6.896123 3.2079,-2.389558 7.18494,-4.627139 9.72265,-6.355662 3.40481,-2.31913 8.53235,-6.772797 5.77695,-2.407061 -3.79292,3.205104 -8.0032,5.604034 -11.98154,8.259353 -9.0379,6.032303 -14.31612,10.131533 -19.77858,17.136123 -2.42254,3.10646 -5.53996,6.81073 -8.61317,9.09025 -1.27979,0.94927 -5.08821,2.32505 -5.08821,2.32505 l 13.36657,14.76586 c 0,0 2.1729,-5.57173 3.07983,-8.12762 1.24853,-3.51858 2.4642,-7.81684 3.56986,-11.21131 1.6515,-5.07028 2.94529,-8.64314 6.15785,-12.39067 2.39459,-2.79336 5.84077,-6.25545 9.33842,-9.21075 2.91833,-2.465809 6.08959,-5.172118 8.47804,-8.069972 2.74121,-3.650667 2.67118,5.558597 3.27054,7.530832 0.14857,3.93437 -0.11056,7.06995 0.34488,11.74016 0.50857,5.21488 0.90889,10.4794 1.33044,14.60476 1.5508,15.1762 2.63192,24.60874 3.68092,35.9414 0.57435,6.20482 0.5816,8.62582 1.50958,13.42833 0.59272,3.06747 0.49136,8.68852 6.38567,7.27816 4.65705,-1.11432 4.3355,-4.99244 3.57562,-11.00989 -2.26879,-17.96636 -3.11262,-32.76465 -4.23434,-43.56104 -0.45413,-4.37096 -1.87977,-16.71785 -2.0539,-22.67786 -0.12756,-4.366 -0.53661,-12.235726 -1.74356,-16.390763 -0.8505,-3.409714 -2.52715,-3.87026 -6.81962,-3.961369 -1.60464,-0.282415 -2.00584,-0.185056 -2.41169,1.209535 -4.30835,1.900701 -8.81344,3.707367 -13.67677,5.854875 -5.24145,2.321033 -7.07521,3.229252 -11.1557,4.547392 -5.23495,1.691065 -8.16599,2.99347 -12.39046,3.82801 -3.49183,0.68981 -11.32533,0.99702 -11.79046,0.44818 -1.14989,-1.35683 0.11653,-1.59192 -0.73222,-2.23019 z"
       id="path865"
       inkscape:connector-curvature="0"
       sodipodi:nodetypes="csssssscsssccssssccssssssssccccsssc" />
  </g>
  <g
     inkscape:groupmode="layer"
     id="layer6"
     inkscape:label="Livello 6"
     style="display:inline"
     sodipodi:insensitive="true"
     transform="translate(294.59372,-46.481943)">
    <path
       style="fill:#ea829b;fill-opacity:1;stroke:#000000;stroke-width:0.26458332px;stroke-linecap:butt;stroke-linejoin:miter;stroke-opacity:1"
       d="m -116.90331,85.407694 c 5.19996,0.329132 11.31951,2.10957 14.99344,4.282215 2.637079,1.559487 5.404359,4.060836 8.505218,9.437181 1.556763,2.69915 3.06055,5.3323 3.929227,8.35774 0.888368,3.09402 2.407056,5.82512 2.88049,9.77161 0.523004,4.35969 1.548991,8.73837 1.117626,13.12703 -0.298828,3.04025 -1.908159,5.8701 -5.913133,4.68279 -3.388046,-1.00441 -6.371871,-1.96644 -9.570548,-3.39048 -9.09659,-4.36328 -18.30612,-9.87441 -26.1036,-14.83515 -6.2552,-4.76642 -13.97128,-8.07783 -15.27338,-15.12134 0.52403,-7.645181 4.76521,-11.443549 9.6604,-13.762917 4.52411,-2.601827 11.28943,-2.832547 15.77426,-2.548679 z"
       id="path870"
       inkscape:connector-curvature="0"
       sodipodi:nodetypes="sssssssccccs" />
  </g>
  <g
     inkscape:groupmode="layer"
     id="layer7"
     inkscape:label="Livello 7"
     sodipodi:insensitive="true"
     style="display:inline"
     transform="translate(294.59372,-46.481943)" />
  <g
     inkscape:groupmode="layer"
     id="layer4"
     inkscape:label="Livello 4"
     style="display:inline"
     sodipodi:insensitive="true"
     transform="translate(294.59372,-46.481943)">
    <path
       style="fill:#666666;fill-opacity:1;stroke:#000000;stroke-width:0.26458332px;stroke-linecap:butt;stroke-linejoin:miter;stroke-opacity:1"
       d="m -266.14524,218.90351 -1.45998,4.98195 15.46537,2.52741 1.78813,-4.97093 z"
       id="path845"
       inkscape:connector-curvature="0"
       sodipodi:nodetypes="ccccc" />
    <path
       style="fill:#666666;fill-opacity:1;stroke:#000000;stroke-width:0.26458332px;stroke-linecap:butt;stroke-linejoin:miter;stroke-opacity:1"
       d="m -250.6526,221.26141 c 0,0 8.9887,1.94634 13.07549,2.62405 l 2.28671,-5.47607 -13.05832,-1.8053 z"
       id="path847"
       inkscape:connector-curvature="0"
       sodipodi:nodetypes="ccccc" />
    <path
       style="fill:#666666;fill-opacity:1;stroke:#000000;stroke-width:0.26458332px;stroke-linecap:butt;stroke-linejoin:miter;stroke-opacity:1"
       d="m -125.16728,220.15451 2.16636,4.99466 -10.89196,2.34688 -2.22653,-5.23536 z"
       id="path851"
       inkscape:connector-curvature="0"
       sodipodi:nodetypes="ccccc" />
    <path
       style="fill:#666666;fill-opacity:1;stroke:#000000;stroke-width:0.26458332px;stroke-linecap:butt;stroke-linejoin:miter;stroke-opacity:1"
       d="m -146.46978,230.26418 2.8283,5.29553 15.22467,-4.21236 -2.94865,-5.47606 z"
       id="path849"
       inkscape:connector-curvature="0" />
  </g>
  <g
     inkscape:groupmode="layer"
     id="layer2"
     inkscape:label="Livello 2"
     style="display:inline;opacity:1"
     transform="translate(294.59372,-46.481943)"
     sodipodi:insensitive="true">
    <path
       style="fill:#ef9dad;fill-opacity:1;stroke:#000000;stroke-width:0.26458332px;stroke-linecap:butt;stroke-linejoin:miter;stroke-opacity:1"
       d="m -272.49829,153.85755 c 1.84056,-2.91258 3.83494,-6.22172 7.73006,-9.14645 7.06354,-5.30381 12.3704,-7.29941 18.17534,-8.21447 7.80154,-1.22979 12.92093,0.19023 18.94588,4.87504 5.92076,5.17791 9.03333,10.28143 10.84631,16.77679 1.71167,7.54673 1.32658,12.87268 -0.27653,18.64209 -2.19273,7.60072 -8.37351,13.46604 -11.71606,17.70165 -4.77039,6.04496 -8.86235,10.79304 -12.87265,15.80752 -2.90565,3.63323 -6.88691,8.35952 -8.98666,10.90151 -7.24846,-1.03231 -8.81824,-1.37646 -15.37228,-2.47825 -1.41938,-7.26091 -2.94607,-14.01055 -4.68918,-21.40684 -1.73084,-7.34423 -3.93765,-17.35354 -5.27093,-24.45751 -1.19693,-7.3214 0.12047,-13.67424 3.4867,-19.00108 z"
       id="path830"
       inkscape:connector-curvature="0"
       sodipodi:nodetypes="ssscccssccscs" />
    <path
       style="fill:#ef9dad;fill-opacity:1;stroke:#000000;stroke-width:0.26458332px;stroke-linecap:butt;stroke-linejoin:miter;stroke-opacity:1"
       d="m -146.52996,230.23409 c -6.81,-7.05255 -14.16504,-14.97448 -20.0388,-20.97154 -6.10246,-6.81418 -14.5702,-14.71999 -18.41403,-22.14498 -4.18705,-8.08797 -3.4052,-15.30008 -0.66252,-22.84099 1.39255,-3.82876 5.85868,-8.93446 8.4253,-11.2834 4.09333,-3.74617 7.98923,-6.02144 13.77527,-7.15247 9.66653,-1.88957 18.20237,1.96264 22.20193,4.3252 8.75122,5.1694 11.98765,10.99418 14.51094,16.10048 1.61985,3.27803 2.89462,8.40854 2.85839,11.16275 -0.11473,8.72308 -2.03501,15.42624 -2.81404,20.24956 -1.41801,8.77958 -3.31451,18.24291 -4.73812,28.07223 -5.35395,1.60189 -15.10432,4.48316 -15.10432,4.48316 z"
       id="path876"
       inkscape:connector-curvature="0"
       sodipodi:nodetypes="ccsssssssscc" />
    <path
       style="fill:#ea7c94;fill-opacity:1;stroke:#000000;stroke-width:0.26458332px;stroke-linecap:butt;stroke-linejoin:miter;stroke-opacity:1"
       d="m -124.50699,184.07885 5.38497,-0.32636 -6.03769,36.30773 -5.79292,1.22386 z"
       id="path900"
       inkscape:connector-curvature="0"
       sodipodi:nodetypes="ccccc" />
    <path
       style="fill:#ea7c94;fill-opacity:1;stroke:#000000;stroke-width:0.26458332px;stroke-linecap:butt;stroke-linejoin:miter;stroke-opacity:1"
       d="m -231.06408,197.2965 10.85152,3.3452 -14.68627,17.86831 -11.9938,-1.87658 z"
       id="path902"
       inkscape:connector-curvature="0" />
  </g>
  <g
     inkscape:groupmode="layer"
     id="layer12"
     inkscape:label="Livello 12"
     style="display:inline"
     sodipodi:insensitive="true"
     transform="translate(294.59372,-46.481943)">
    <path
       style="fill:#f7dcdd;fill-opacity:1;stroke:#f7dcdd;stroke-width:0.26458332px;stroke-linecap:butt;stroke-linejoin:miter;stroke-opacity:1"
       d="m -219.88376,75.368429 c -2.13439,0.398845 -4.76863,0.861977 -7.562,1.793946 -5.6989,2.02492 -10.51498,4.787448 -15.06059,7.994782 -4.27556,3.016792 -8.43138,6.74666 -10.9811,9.822483 -2.10204,2.535763 -5.5735,7.08709 -7.02286,9.26728 -2.13663,3.21399 -3.18222,5.6983 -4.59737,8.40058 -1.40233,2.67779 -2.71072,6.03858 -2.71072,6.03858 0,0 4.42784,-0.84466 7.31842,-1.54542 2.57464,-0.62416 4.6801,-1.34447 7.18483,-2.03959 2.26569,-0.62878 6.87281,-2.54515 8.82161,-3.87732 1.73738,-1.18764 3.62596,-1.74752 6.09856,-6.74458 1.21749,-2.46051 2.18982,-5.586746 3.24433,-8.126512 1.14262,-2.751989 2.33892,-4.825372 4.31696,-7.124464 1.65298,-1.92128 4.2055,-4.427658 6.16943,-6.037561 2.3381,-1.916622 3.09252,-2.035458 5.41552,-3.973165 0.94873,-0.791377 7.72861,-4.680365 7.72861,-4.680365 -3.83859,0.03278 -5.31418,0.261487 -8.36363,0.831326 z"
       id="path924"
       inkscape:connector-curvature="0"
       sodipodi:nodetypes="scsssscsssssssscs" />
    <path
       style="fill:#f7dcdd;fill-opacity:1;stroke:#f7dcdd;stroke-width:0.26458332px;stroke-linecap:butt;stroke-linejoin:miter;stroke-opacity:1"
       d="m -128.88019,89.676916 c 1.6367,-0.248081 9.08179,-0.964925 12.11767,-0.433865 5.16775,0.903982 12.57919,2.869554 16.978689,7.468779 3.620927,3.78531 3.97956,5.43449 6.018016,9.26563 0.977399,1.83694 1.638364,6.31969 1.656667,7.41544 -1.210206,-1.22094 -3.399495,-3.18234 -4.749491,-4.30423 -3.133145,-2.60375 -5.926861,-4.03558 -9.715071,-4.8494 -1.99427,-0.42843 -3.56596,-0.78771 -5.58921,-0.86136 -4.0454,-0.0133 -6.63523,-0.0166 -9.39678,-2.79812 -3.14383,-3.166507 -5.76352,-7.658119 -7.32049,-10.902874 z"
       id="path939"
       inkscape:connector-curvature="0"
       sodipodi:nodetypes="cssscsscsc" />
    <path
       style="fill:#f7dcdd;fill-opacity:1;stroke:#f7dcdd;stroke-width:0.26458332px;stroke-linecap:butt;stroke-linejoin:miter;stroke-opacity:1"
       d="m -238.94126,141.78699 c -5.1211,0.0561 -8.90528,0.53092 -13.56229,2.05036 -3.8172,1.47231 -7.6815,3.6608 -10.23837,7.05445 -1.74821,2.32033 -2.90465,4.40549 -3.96409,7.32968 -1.11702,3.08312 -1.80816,5.80353 -2.40363,9.27851 1.59265,-1.41108 3.24259,-2.7465 4.8848,-4.1026 2.77419,-2.11561 5.56782,-4.04811 8.64984,-5.09867 3.72489,-1.34372 8.07086,-0.35568 10.9479,-0.91297 4.97891,-0.96442 7.15278,-4.93835 9.53717,-8.5878 1.42127,-2.17534 2.30756,-4.41606 3.36026,-6.53956 -2.80816,-0.24206 -4.51927,-0.35718 -7.21159,-0.4714 z"
       id="path943"
       inkscape:connector-curvature="0"
       sodipodi:nodetypes="ccsscccsscc" />
    <path
       style="fill:#f7dcdd;fill-opacity:1;stroke:#f7dcdd;stroke-width:0.26458332px;stroke-linecap:butt;stroke-linejoin:miter;stroke-opacity:1"
       d="m -154.56362,150.1389 c -4.14155,0.0697 -6.24693,0.21124 -10.18226,1.24781 -4.74208,1.24908 -8.76815,3.84759 -11.496,7.14422 -1.77972,2.15081 -3.78829,5.64433 -4.47089,7.61753 -0.79164,2.28838 -1.74101,6.1463 -2.12233,9.14698 0.68255,-0.67522 1.50951,-1.35657 2.48386,-2.16212 1.01556,-0.83961 3.07143,-2.46284 4.85225,-3.55406 1.94098,-1.18936 3.11546,-2.07522 5.22595,-2.8402 1.37194,-0.49728 3.96795,-1.18991 6.35162,-1.11307 2.68025,0.0864 4.50038,0.57112 7.16325,-0.46192 2.88239,-1.1182 4.94494,-4.43094 6.48198,-6.7518 1.21866,-1.84011 3.53359,-5.81264 4.49844,-7.50599 -3.55162,-0.50718 -5.32768,-0.82555 -8.78587,-0.76738 z"
       id="path951"
       inkscape:connector-curvature="0"
       sodipodi:nodetypes="sssscsssssscs" />
    <path
       style="fill:#f7dcdd;fill-opacity:1;stroke:#f7dcdd;stroke-width:0.26458332px;stroke-linecap:butt;stroke-linejoin:miter;stroke-opacity:1"
       d="m -73.69879,170.58019 c 0,0 -5.437332,-0.7148 -8.169841,-0.68082 -2.368122,0.0294 -5.662641,-0.3022 -10.392987,2.1199 -1.892424,0.96898 -3.6437,2.6375 -8.808772,3.7642 -5.59202,1.21984 -9.43524,1.43472 -9.43524,1.43472 0,0 3.71631,0.57335 5.47451,0.70574 2.82878,0.21301 5.437868,0.27296 8.269546,0.10278 6.143497,-0.59726 8.718271,-1.24677 13.063238,-2.51052 2.129187,-0.76087 4.197583,-1.69735 6.212486,-2.72328 1.302872,-0.66338 3.78706,-2.21272 3.78706,-2.21272 z"
       id="path954"
       inkscape:connector-curvature="0"
       sodipodi:nodetypes="cssscsccsc" />
  </g>
  <g
     inkscape:groupmode="layer"
     id="layer14"
     inkscape:label="Livello 14"
     sodipodi:insensitive="true"
     transform="translate(3.1008971e-6)">
    <rect
       style="opacity:1;fill:url(#linearGradient967);fill-opacity:1;stroke:#ffffff;stroke-width:0.26499999;stroke-miterlimit:4;stroke-dasharray:none;stroke-opacity:0"
       id="rect959"
       width="253.72792"
       height="196.24835"
       x="0.48100081"
       y="0.72150946" />
  </g>
  <g
     inkscape:groupmode="layer"
     id="layer15"
     inkscape:label="Livello 15"
     transform="translate(3.1008971e-6)">
    <text
       xml:space="preserve"
       style="font-style:normal;font-variant:normal;font-weight:bold;font-stretch:normal;font-size:17.88106346px;line-height:1.25;font-family:Tahoma;-inkscape-font-specification:'Tahoma Bold';font-variant-ligatures:normal;font-variant-caps:normal;font-variant-numeric:normal;font-feature-settings:normal;text-align:start;letter-spacing:0px;word-spacing:0px;writing-mode:lr-tb;text-anchor:start;fill:#000000;fill-opacity:1;stroke:none;stroke-width:0.26458332"
       x="142.3392"
       y="-30.600756"
       id="text980"
       transform="matrix(0.59320061,0.39224487,-0.88758727,1.0988668,0,0)"><tspan
         sodipodi:role="line"
         id="tspan978"
         x="142.3392"
         y="-30.600756"
         style="stroke-width:0.26458332">GAzie</tspan></text>
  </g>
</svg>
